<mxfile host="Electron" agent="Mozilla/5.0 (Macintosh; Intel Mac OS X 10_15_7) AppleWebKit/537.36 (KHTML, like Gecko) draw.io/26.0.4 Chrome/128.0.6613.186 Electron/32.2.5 Safari/537.36" version="26.0.4">
  <diagram name="Seite-1" id="oghuIxL4Z4Bc2vfNotkc">
    <mxGraphModel dx="1735" dy="1225" grid="1" gridSize="10" guides="1" tooltips="1" connect="1" arrows="1" fold="1" page="1" pageScale="1" pageWidth="827" pageHeight="1169" math="0" shadow="0">
      <root>
        <mxCell id="0" />
        <mxCell id="1" parent="0" />
        <mxCell id="0LZnNtoyq6NVcREk1nyZ-2" value="CROSS ATTENTION TO PAD TOKENS" style="rounded=0;whiteSpace=wrap;html=1;verticalAlign=top;fillColor=#E6E6E6;" vertex="1" parent="1">
          <mxGeometry x="660" y="240" width="476" height="780" as="geometry" />
        </mxCell>
        <mxCell id="0LZnNtoyq6NVcREk1nyZ-1" value="COPY THEN ATTENTION" style="rounded=0;whiteSpace=wrap;html=1;verticalAlign=top;fillColor=#E6E6E6;" vertex="1" parent="1">
          <mxGeometry x="164" y="240" width="476" height="780" as="geometry" />
        </mxCell>
        <mxCell id="5rbwrfT3B-s63WrXZCqr-95" value="" style="rounded=1;whiteSpace=wrap;html=1;fontColor=#FFFFFF;fillColor=#FFFFCC;" parent="1" vertex="1">
          <mxGeometry x="360.5" y="530" width="40" height="120" as="geometry" />
        </mxCell>
        <mxCell id="5rbwrfT3B-s63WrXZCqr-96" value="" style="rounded=1;whiteSpace=wrap;html=1;fontColor=#FFFFFF;fillColor=#FFFFCC;" parent="1" vertex="1">
          <mxGeometry x="315.5" y="530" width="40" height="120" as="geometry" />
        </mxCell>
        <mxCell id="5rbwrfT3B-s63WrXZCqr-97" value="" style="rounded=1;whiteSpace=wrap;html=1;fontColor=#FFFFFF;fillColor=#FFFFCC;" parent="1" vertex="1">
          <mxGeometry x="270.5" y="530" width="40" height="120" as="geometry" />
        </mxCell>
        <mxCell id="5rbwrfT3B-s63WrXZCqr-98" value="" style="rounded=1;whiteSpace=wrap;html=1;fontColor=#FFFFFF;fillColor=#FFFFCC;" parent="1" vertex="1">
          <mxGeometry x="225" y="530" width="40" height="120" as="geometry" />
        </mxCell>
        <mxCell id="5rbwrfT3B-s63WrXZCqr-99" value="" style="rounded=1;whiteSpace=wrap;html=1;fontColor=#FFFFFF;fillColor=#FFFFCC;" parent="1" vertex="1">
          <mxGeometry x="180" y="530" width="40" height="120" as="geometry" />
        </mxCell>
        <mxCell id="5rbwrfT3B-s63WrXZCqr-2" value="" style="rounded=1;whiteSpace=wrap;html=1;fontColor=#FFFFFF;fillColor=#4C0099;" parent="1" vertex="1">
          <mxGeometry x="225" y="789" width="120" height="60" as="geometry" />
        </mxCell>
        <mxCell id="5rbwrfT3B-s63WrXZCqr-3" style="edgeStyle=orthogonalEdgeStyle;rounded=0;orthogonalLoop=1;jettySize=auto;html=1;exitX=0;exitY=0.5;exitDx=0;exitDy=0;entryX=1;entryY=0.5;entryDx=0;entryDy=0;" parent="1" source="5rbwrfT3B-s63WrXZCqr-4" target="5rbwrfT3B-s63WrXZCqr-46" edge="1">
          <mxGeometry relative="1" as="geometry" />
        </mxCell>
        <mxCell id="5rbwrfT3B-s63WrXZCqr-4" value="" style="rounded=1;whiteSpace=wrap;html=1;fontColor=#FFFFFF;fillColor=#FFFFCC;" parent="1" vertex="1">
          <mxGeometry x="506" y="970" width="120" height="40" as="geometry" />
        </mxCell>
        <mxCell id="5rbwrfT3B-s63WrXZCqr-5" style="edgeStyle=orthogonalEdgeStyle;rounded=0;orthogonalLoop=1;jettySize=auto;html=1;exitX=0;exitY=0.5;exitDx=0;exitDy=0;entryX=1;entryY=0.5;entryDx=0;entryDy=0;" parent="1" source="5rbwrfT3B-s63WrXZCqr-6" target="5rbwrfT3B-s63WrXZCqr-46" edge="1">
          <mxGeometry relative="1" as="geometry" />
        </mxCell>
        <mxCell id="5rbwrfT3B-s63WrXZCqr-6" value="" style="rounded=1;whiteSpace=wrap;html=1;fontColor=#FFFFFF;fillColor=#FFFFCC;" parent="1" vertex="1">
          <mxGeometry x="506" y="925" width="120" height="40" as="geometry" />
        </mxCell>
        <mxCell id="5rbwrfT3B-s63WrXZCqr-7" style="edgeStyle=orthogonalEdgeStyle;rounded=0;orthogonalLoop=1;jettySize=auto;html=1;exitX=0;exitY=0.5;exitDx=0;exitDy=0;entryX=1;entryY=0.5;entryDx=0;entryDy=0;" parent="1" source="5rbwrfT3B-s63WrXZCqr-8" target="5rbwrfT3B-s63WrXZCqr-46" edge="1">
          <mxGeometry relative="1" as="geometry" />
        </mxCell>
        <mxCell id="5rbwrfT3B-s63WrXZCqr-8" value="" style="rounded=1;whiteSpace=wrap;html=1;fontColor=#FFFFFF;fillColor=#FFFFCC;" parent="1" vertex="1">
          <mxGeometry x="506" y="880" width="120" height="40" as="geometry" />
        </mxCell>
        <mxCell id="5rbwrfT3B-s63WrXZCqr-9" style="edgeStyle=orthogonalEdgeStyle;rounded=0;orthogonalLoop=1;jettySize=auto;html=1;exitX=0;exitY=0.5;exitDx=0;exitDy=0;entryX=1;entryY=0.5;entryDx=0;entryDy=0;" parent="1" source="5rbwrfT3B-s63WrXZCqr-10" target="5rbwrfT3B-s63WrXZCqr-46" edge="1">
          <mxGeometry relative="1" as="geometry" />
        </mxCell>
        <mxCell id="5rbwrfT3B-s63WrXZCqr-10" value="" style="rounded=1;whiteSpace=wrap;html=1;fontColor=#FFFFFF;fillColor=#FFFFCC;" parent="1" vertex="1">
          <mxGeometry x="506" y="835" width="120" height="40" as="geometry" />
        </mxCell>
        <mxCell id="5rbwrfT3B-s63WrXZCqr-11" style="edgeStyle=orthogonalEdgeStyle;rounded=0;orthogonalLoop=1;jettySize=auto;html=1;exitX=0;exitY=0.5;exitDx=0;exitDy=0;entryX=1;entryY=0.5;entryDx=0;entryDy=0;" parent="1" source="5rbwrfT3B-s63WrXZCqr-12" target="5rbwrfT3B-s63WrXZCqr-46" edge="1">
          <mxGeometry relative="1" as="geometry" />
        </mxCell>
        <mxCell id="5rbwrfT3B-s63WrXZCqr-12" value="" style="rounded=1;whiteSpace=wrap;html=1;fontColor=#FFFFFF;fillColor=#FFFFCC;" parent="1" vertex="1">
          <mxGeometry x="506" y="790" width="120" height="40" as="geometry" />
        </mxCell>
        <mxCell id="5rbwrfT3B-s63WrXZCqr-13" value="pad" style="rounded=1;whiteSpace=wrap;html=1;fillColor=#666666;fontColor=#FFFFFF;" parent="1" vertex="1">
          <mxGeometry x="515" y="795" width="30" height="30" as="geometry" />
        </mxCell>
        <mxCell id="5rbwrfT3B-s63WrXZCqr-14" value="pad" style="rounded=1;whiteSpace=wrap;html=1;fillColor=#666666;fontColor=#FFFFFF;" parent="1" vertex="1">
          <mxGeometry x="551" y="795" width="30" height="30" as="geometry" />
        </mxCell>
        <mxCell id="5rbwrfT3B-s63WrXZCqr-15" value="3" style="rounded=1;whiteSpace=wrap;html=1;fillColor=#4D9900;fontColor=#FFFFFF;" parent="1" vertex="1">
          <mxGeometry x="587" y="795" width="30" height="30" as="geometry" />
        </mxCell>
        <mxCell id="5rbwrfT3B-s63WrXZCqr-16" value="pad" style="rounded=1;whiteSpace=wrap;html=1;fillColor=#666666;fontColor=#FFFFFF;" parent="1" vertex="1">
          <mxGeometry x="515" y="840" width="30" height="30" as="geometry" />
        </mxCell>
        <mxCell id="5rbwrfT3B-s63WrXZCqr-17" value="pad" style="rounded=1;whiteSpace=wrap;html=1;fillColor=#666666;fontColor=#FFFFFF;" parent="1" vertex="1">
          <mxGeometry x="551" y="840" width="30" height="30" as="geometry" />
        </mxCell>
        <mxCell id="5rbwrfT3B-s63WrXZCqr-18" value="+" style="rounded=1;whiteSpace=wrap;html=1;fillColor=#004C99;fontColor=#FFFFFF;" parent="1" vertex="1">
          <mxGeometry x="587" y="840" width="30" height="30" as="geometry" />
        </mxCell>
        <mxCell id="5rbwrfT3B-s63WrXZCqr-19" value="9" style="rounded=1;whiteSpace=wrap;html=1;fillColor=#4D9900;fontColor=#FFFFFF;" parent="1" vertex="1">
          <mxGeometry x="515" y="885" width="30" height="30" as="geometry" />
        </mxCell>
        <mxCell id="5rbwrfT3B-s63WrXZCqr-20" value="9" style="rounded=1;whiteSpace=wrap;html=1;fillColor=#4D9900;fontColor=#FFFFFF;" parent="1" vertex="1">
          <mxGeometry x="551" y="885" width="30" height="30" as="geometry" />
        </mxCell>
        <mxCell id="5rbwrfT3B-s63WrXZCqr-21" value="8" style="rounded=1;whiteSpace=wrap;html=1;fillColor=#4D9900;fontColor=#FFFFFF;" parent="1" vertex="1">
          <mxGeometry x="587" y="885" width="30" height="30" as="geometry" />
        </mxCell>
        <mxCell id="5rbwrfT3B-s63WrXZCqr-22" value="pad" style="rounded=1;whiteSpace=wrap;html=1;fillColor=#666666;fontColor=#FFFFFF;" parent="1" vertex="1">
          <mxGeometry x="515" y="930" width="30" height="30" as="geometry" />
        </mxCell>
        <mxCell id="5rbwrfT3B-s63WrXZCqr-23" value="pad" style="rounded=1;whiteSpace=wrap;html=1;fillColor=#666666;fontColor=#FFFFFF;" parent="1" vertex="1">
          <mxGeometry x="551" y="930" width="30" height="30" as="geometry" />
        </mxCell>
        <mxCell id="5rbwrfT3B-s63WrXZCqr-24" value="=" style="rounded=1;whiteSpace=wrap;html=1;fillColor=#004C99;fontColor=#FFFFFF;" parent="1" vertex="1">
          <mxGeometry x="587" y="930" width="30" height="30" as="geometry" />
        </mxCell>
        <mxCell id="5rbwrfT3B-s63WrXZCqr-25" value="1" style="rounded=1;whiteSpace=wrap;html=1;fillColor=#4D9900;fontColor=#FFFFFF;" parent="1" vertex="1">
          <mxGeometry x="515" y="975" width="30" height="30" as="geometry" />
        </mxCell>
        <mxCell id="5rbwrfT3B-s63WrXZCqr-26" value="0" style="rounded=1;whiteSpace=wrap;html=1;fillColor=#4D9900;fontColor=#FFFFFF;" parent="1" vertex="1">
          <mxGeometry x="551" y="975" width="30" height="30" as="geometry" />
        </mxCell>
        <mxCell id="5rbwrfT3B-s63WrXZCqr-27" value="0" style="rounded=1;whiteSpace=wrap;html=1;fillColor=#4D9900;fontColor=#FFFFFF;" parent="1" vertex="1">
          <mxGeometry x="587" y="975" width="30" height="30" as="geometry" />
        </mxCell>
        <mxCell id="5rbwrfT3B-s63WrXZCqr-28" style="edgeStyle=orthogonalEdgeStyle;rounded=0;orthogonalLoop=1;jettySize=auto;html=1;exitX=0.5;exitY=0;exitDx=0;exitDy=0;entryX=0.5;entryY=1;entryDx=0;entryDy=0;fontColor=#FFFFFF;" parent="1" source="5rbwrfT3B-s63WrXZCqr-29" target="5rbwrfT3B-s63WrXZCqr-44" edge="1">
          <mxGeometry relative="1" as="geometry" />
        </mxCell>
        <mxCell id="5rbwrfT3B-s63WrXZCqr-29" value="3" style="rounded=1;whiteSpace=wrap;html=1;fillColor=#4D9900;fontColor=#FFFFFF;" parent="1" vertex="1">
          <mxGeometry x="205" y="975" width="30" height="30" as="geometry" />
        </mxCell>
        <mxCell id="5rbwrfT3B-s63WrXZCqr-30" style="edgeStyle=orthogonalEdgeStyle;rounded=0;orthogonalLoop=1;jettySize=auto;html=1;exitX=0.5;exitY=0;exitDx=0;exitDy=0;entryX=0.5;entryY=1;entryDx=0;entryDy=0;fontColor=#FFFFFF;" parent="1" source="5rbwrfT3B-s63WrXZCqr-31" target="5rbwrfT3B-s63WrXZCqr-44" edge="1">
          <mxGeometry relative="1" as="geometry" />
        </mxCell>
        <mxCell id="5rbwrfT3B-s63WrXZCqr-31" value="+" style="rounded=1;whiteSpace=wrap;html=1;fillColor=#004C99;fontColor=#FFFFFF;" parent="1" vertex="1">
          <mxGeometry x="240" y="975" width="30" height="30" as="geometry" />
        </mxCell>
        <mxCell id="5rbwrfT3B-s63WrXZCqr-32" style="edgeStyle=orthogonalEdgeStyle;rounded=0;orthogonalLoop=1;jettySize=auto;html=1;exitX=0.5;exitY=0;exitDx=0;exitDy=0;entryX=0.5;entryY=1;entryDx=0;entryDy=0;fontColor=#FFFFFF;" parent="1" source="5rbwrfT3B-s63WrXZCqr-33" target="5rbwrfT3B-s63WrXZCqr-44" edge="1">
          <mxGeometry relative="1" as="geometry" />
        </mxCell>
        <mxCell id="5rbwrfT3B-s63WrXZCqr-33" value="998" style="rounded=1;whiteSpace=wrap;html=1;fillColor=#4D9900;fontColor=#FFFFFF;" parent="1" vertex="1">
          <mxGeometry x="275" y="975" width="30" height="30" as="geometry" />
        </mxCell>
        <mxCell id="5rbwrfT3B-s63WrXZCqr-34" style="edgeStyle=orthogonalEdgeStyle;rounded=0;orthogonalLoop=1;jettySize=auto;html=1;exitX=0.5;exitY=0;exitDx=0;exitDy=0;entryX=0.5;entryY=1;entryDx=0;entryDy=0;fontColor=#FFFFFF;" parent="1" source="5rbwrfT3B-s63WrXZCqr-35" target="5rbwrfT3B-s63WrXZCqr-44" edge="1">
          <mxGeometry relative="1" as="geometry" />
        </mxCell>
        <mxCell id="5rbwrfT3B-s63WrXZCqr-35" value="=" style="rounded=1;whiteSpace=wrap;html=1;fillColor=#004C99;fontColor=#FFFFFF;" parent="1" vertex="1">
          <mxGeometry x="310" y="975" width="30" height="30" as="geometry" />
        </mxCell>
        <mxCell id="5rbwrfT3B-s63WrXZCqr-36" style="edgeStyle=orthogonalEdgeStyle;rounded=0;orthogonalLoop=1;jettySize=auto;html=1;exitX=0.5;exitY=0;exitDx=0;exitDy=0;entryX=0.5;entryY=1;entryDx=0;entryDy=0;fontColor=#FFFFFF;" parent="1" source="5rbwrfT3B-s63WrXZCqr-37" target="5rbwrfT3B-s63WrXZCqr-44" edge="1">
          <mxGeometry relative="1" as="geometry" />
        </mxCell>
        <mxCell id="5rbwrfT3B-s63WrXZCqr-37" value="100" style="rounded=1;whiteSpace=wrap;html=1;fillColor=#4D9900;fontColor=#FFFFFF;" parent="1" vertex="1">
          <mxGeometry x="345" y="975" width="30" height="30" as="geometry" />
        </mxCell>
        <mxCell id="5rbwrfT3B-s63WrXZCqr-38" value="L1" style="rounded=1;whiteSpace=wrap;html=1;fillColor=#CC6600;fontColor=#FFFFFF;" parent="1" vertex="1">
          <mxGeometry x="205" y="710" width="30" height="30" as="geometry" />
        </mxCell>
        <mxCell id="5rbwrfT3B-s63WrXZCqr-39" value="L2" style="rounded=1;whiteSpace=wrap;html=1;fillColor=#CC6600;fontColor=#FFFFFF;" parent="1" vertex="1">
          <mxGeometry x="240" y="710" width="30" height="30" as="geometry" />
        </mxCell>
        <mxCell id="5rbwrfT3B-s63WrXZCqr-40" value="L3" style="rounded=1;whiteSpace=wrap;html=1;fillColor=#CC6600;fontColor=#FFFFFF;" parent="1" vertex="1">
          <mxGeometry x="275" y="710" width="30" height="30" as="geometry" />
        </mxCell>
        <mxCell id="5rbwrfT3B-s63WrXZCqr-41" value="L4" style="rounded=1;whiteSpace=wrap;html=1;fillColor=#CC6600;fontColor=#FFFFFF;" parent="1" vertex="1">
          <mxGeometry x="310" y="710" width="30" height="30" as="geometry" />
        </mxCell>
        <mxCell id="5rbwrfT3B-s63WrXZCqr-42" value="L5" style="rounded=1;whiteSpace=wrap;html=1;fillColor=#CC6600;fontColor=#FFFFFF;" parent="1" vertex="1">
          <mxGeometry x="345" y="710" width="30" height="30" as="geometry" />
        </mxCell>
        <mxCell id="5rbwrfT3B-s63WrXZCqr-43" style="edgeStyle=orthogonalEdgeStyle;rounded=0;orthogonalLoop=1;jettySize=auto;html=1;exitX=0.5;exitY=0;exitDx=0;exitDy=0;entryX=0.5;entryY=1;entryDx=0;entryDy=0;" parent="1" source="5rbwrfT3B-s63WrXZCqr-44" target="5rbwrfT3B-s63WrXZCqr-52" edge="1">
          <mxGeometry relative="1" as="geometry" />
        </mxCell>
        <mxCell id="5rbwrfT3B-s63WrXZCqr-44" value="Cross-Attention" style="rounded=1;whiteSpace=wrap;html=1;fontColor=#FFFFFF;fillColor=#4C0099;" parent="1" vertex="1">
          <mxGeometry x="230" y="870" width="120" height="60" as="geometry" />
        </mxCell>
        <mxCell id="5rbwrfT3B-s63WrXZCqr-45" style="edgeStyle=orthogonalEdgeStyle;rounded=0;orthogonalLoop=1;jettySize=auto;html=1;exitX=0;exitY=0.5;exitDx=0;exitDy=0;entryX=1;entryY=0.5;entryDx=0;entryDy=0;" parent="1" source="5rbwrfT3B-s63WrXZCqr-46" target="5rbwrfT3B-s63WrXZCqr-44" edge="1">
          <mxGeometry relative="1" as="geometry" />
        </mxCell>
        <mxCell id="5rbwrfT3B-s63WrXZCqr-46" value="Self-Attention" style="rounded=1;whiteSpace=wrap;html=1;fontColor=#FFFFFF;fillColor=#4C0099;" parent="1" vertex="1">
          <mxGeometry x="375" y="870" width="89" height="60" as="geometry" />
        </mxCell>
        <mxCell id="5rbwrfT3B-s63WrXZCqr-47" style="edgeStyle=orthogonalEdgeStyle;rounded=0;orthogonalLoop=1;jettySize=auto;html=1;exitX=0.5;exitY=0;exitDx=0;exitDy=0;entryX=0.5;entryY=1;entryDx=0;entryDy=0;" parent="1" source="5rbwrfT3B-s63WrXZCqr-52" target="5rbwrfT3B-s63WrXZCqr-40" edge="1">
          <mxGeometry relative="1" as="geometry" />
        </mxCell>
        <mxCell id="5rbwrfT3B-s63WrXZCqr-48" style="edgeStyle=orthogonalEdgeStyle;rounded=0;orthogonalLoop=1;jettySize=auto;html=1;exitX=0.5;exitY=0;exitDx=0;exitDy=0;entryX=0.5;entryY=1;entryDx=0;entryDy=0;" parent="1" source="5rbwrfT3B-s63WrXZCqr-52" target="5rbwrfT3B-s63WrXZCqr-41" edge="1">
          <mxGeometry relative="1" as="geometry" />
        </mxCell>
        <mxCell id="5rbwrfT3B-s63WrXZCqr-49" style="edgeStyle=orthogonalEdgeStyle;rounded=0;orthogonalLoop=1;jettySize=auto;html=1;exitX=0.5;exitY=0;exitDx=0;exitDy=0;entryX=0.5;entryY=1;entryDx=0;entryDy=0;" parent="1" source="5rbwrfT3B-s63WrXZCqr-52" target="5rbwrfT3B-s63WrXZCqr-42" edge="1">
          <mxGeometry relative="1" as="geometry" />
        </mxCell>
        <mxCell id="5rbwrfT3B-s63WrXZCqr-50" style="edgeStyle=orthogonalEdgeStyle;rounded=0;orthogonalLoop=1;jettySize=auto;html=1;exitX=0.5;exitY=0;exitDx=0;exitDy=0;entryX=0.5;entryY=1;entryDx=0;entryDy=0;" parent="1" source="5rbwrfT3B-s63WrXZCqr-52" target="5rbwrfT3B-s63WrXZCqr-39" edge="1">
          <mxGeometry relative="1" as="geometry" />
        </mxCell>
        <mxCell id="5rbwrfT3B-s63WrXZCqr-51" style="edgeStyle=orthogonalEdgeStyle;rounded=0;orthogonalLoop=1;jettySize=auto;html=1;exitX=0.5;exitY=0;exitDx=0;exitDy=0;entryX=0.5;entryY=1;entryDx=0;entryDy=0;" parent="1" source="5rbwrfT3B-s63WrXZCqr-52" target="5rbwrfT3B-s63WrXZCqr-38" edge="1">
          <mxGeometry relative="1" as="geometry" />
        </mxCell>
        <mxCell id="5rbwrfT3B-s63WrXZCqr-52" value="" style="rounded=1;whiteSpace=wrap;html=1;fontColor=#FFFFFF;fillColor=#4C0099;" parent="1" vertex="1">
          <mxGeometry x="230" y="785" width="120" height="60" as="geometry" />
        </mxCell>
        <mxCell id="5rbwrfT3B-s63WrXZCqr-53" value="n Transformer Blocks" style="rounded=1;whiteSpace=wrap;html=1;fontColor=#FFFFFF;fillColor=#4C0099;" parent="1" vertex="1">
          <mxGeometry x="235" y="780" width="120" height="60" as="geometry" />
        </mxCell>
        <mxCell id="5rbwrfT3B-s63WrXZCqr-54" value="Repeat" style="rounded=1;whiteSpace=wrap;html=1;fontColor=#FFFFFF;fillColor=#4C0099;" parent="1" vertex="1">
          <mxGeometry x="200" y="660" width="180" height="30" as="geometry" />
        </mxCell>
        <mxCell id="5rbwrfT3B-s63WrXZCqr-55" value="L1" style="rounded=1;whiteSpace=wrap;html=1;fillColor=#CC6600;fontColor=#FFFFFF;" parent="1" vertex="1">
          <mxGeometry x="185" y="610" width="30" height="30" as="geometry" />
        </mxCell>
        <mxCell id="5rbwrfT3B-s63WrXZCqr-56" value="L2" style="rounded=1;whiteSpace=wrap;html=1;fillColor=#CC6600;fontColor=#FFFFFF;" parent="1" vertex="1">
          <mxGeometry x="230" y="610" width="30" height="30" as="geometry" />
        </mxCell>
        <mxCell id="5rbwrfT3B-s63WrXZCqr-57" value="L3" style="rounded=1;whiteSpace=wrap;html=1;fillColor=#CC6600;fontColor=#FFFFFF;" parent="1" vertex="1">
          <mxGeometry x="275" y="610" width="30" height="30" as="geometry" />
        </mxCell>
        <mxCell id="5rbwrfT3B-s63WrXZCqr-58" value="L4" style="rounded=1;whiteSpace=wrap;html=1;fillColor=#CC6600;fontColor=#FFFFFF;" parent="1" vertex="1">
          <mxGeometry x="320.5" y="610" width="30" height="30" as="geometry" />
        </mxCell>
        <mxCell id="5rbwrfT3B-s63WrXZCqr-59" value="L5" style="rounded=1;whiteSpace=wrap;html=1;fillColor=#CC6600;fontColor=#FFFFFF;" parent="1" vertex="1">
          <mxGeometry x="365.5" y="610" width="30" height="30" as="geometry" />
        </mxCell>
        <mxCell id="5rbwrfT3B-s63WrXZCqr-60" value="L1" style="rounded=1;whiteSpace=wrap;html=1;fillColor=#CC6600;fontColor=#FFFFFF;" parent="1" vertex="1">
          <mxGeometry x="185" y="575" width="30" height="30" as="geometry" />
        </mxCell>
        <mxCell id="5rbwrfT3B-s63WrXZCqr-61" value="L2" style="rounded=1;whiteSpace=wrap;html=1;fillColor=#CC6600;fontColor=#FFFFFF;" parent="1" vertex="1">
          <mxGeometry x="230" y="575" width="30" height="30" as="geometry" />
        </mxCell>
        <mxCell id="5rbwrfT3B-s63WrXZCqr-62" value="L3" style="rounded=1;whiteSpace=wrap;html=1;fillColor=#CC6600;fontColor=#FFFFFF;" parent="1" vertex="1">
          <mxGeometry x="275" y="575" width="30" height="30" as="geometry" />
        </mxCell>
        <mxCell id="5rbwrfT3B-s63WrXZCqr-63" value="L4" style="rounded=1;whiteSpace=wrap;html=1;fillColor=#CC6600;fontColor=#FFFFFF;" parent="1" vertex="1">
          <mxGeometry x="320.5" y="575" width="30" height="30" as="geometry" />
        </mxCell>
        <mxCell id="5rbwrfT3B-s63WrXZCqr-64" value="L5" style="rounded=1;whiteSpace=wrap;html=1;fillColor=#CC6600;fontColor=#FFFFFF;" parent="1" vertex="1">
          <mxGeometry x="365.5" y="575" width="30" height="30" as="geometry" />
        </mxCell>
        <mxCell id="5rbwrfT3B-s63WrXZCqr-65" value="L1" style="rounded=1;whiteSpace=wrap;html=1;fillColor=#CC6600;fontColor=#FFFFFF;" parent="1" vertex="1">
          <mxGeometry x="185" y="540" width="30" height="30" as="geometry" />
        </mxCell>
        <mxCell id="5rbwrfT3B-s63WrXZCqr-66" value="L2" style="rounded=1;whiteSpace=wrap;html=1;fillColor=#CC6600;fontColor=#FFFFFF;" parent="1" vertex="1">
          <mxGeometry x="230" y="540" width="30" height="30" as="geometry" />
        </mxCell>
        <mxCell id="5rbwrfT3B-s63WrXZCqr-67" value="L3" style="rounded=1;whiteSpace=wrap;html=1;fillColor=#CC6600;fontColor=#FFFFFF;" parent="1" vertex="1">
          <mxGeometry x="275" y="540" width="30" height="30" as="geometry" />
        </mxCell>
        <mxCell id="5rbwrfT3B-s63WrXZCqr-68" value="L4" style="rounded=1;whiteSpace=wrap;html=1;fillColor=#CC6600;fontColor=#FFFFFF;" parent="1" vertex="1">
          <mxGeometry x="320.5" y="540" width="30" height="30" as="geometry" />
        </mxCell>
        <mxCell id="5rbwrfT3B-s63WrXZCqr-69" value="L5" style="rounded=1;whiteSpace=wrap;html=1;fillColor=#CC6600;fontColor=#FFFFFF;" parent="1" vertex="1">
          <mxGeometry x="365.5" y="540" width="30" height="30" as="geometry" />
        </mxCell>
        <mxCell id="5rbwrfT3B-s63WrXZCqr-71" value="" style="rounded=1;whiteSpace=wrap;html=1;fontColor=#FFFFFF;fillColor=#4C0099;" parent="1" vertex="1">
          <mxGeometry x="220" y="449" width="120" height="60" as="geometry" />
        </mxCell>
        <mxCell id="5rbwrfT3B-s63WrXZCqr-72" value="" style="rounded=1;whiteSpace=wrap;html=1;fontColor=#FFFFFF;fillColor=#4C0099;" parent="1" vertex="1">
          <mxGeometry x="225" y="445" width="120" height="60" as="geometry" />
        </mxCell>
        <mxCell id="5rbwrfT3B-s63WrXZCqr-73" value="m Attention Layers&lt;div&gt;(no MLP)&lt;/div&gt;&lt;div&gt;(sliding window)&lt;/div&gt;" style="rounded=1;whiteSpace=wrap;html=1;fontColor=#FFFFFF;fillColor=#4C0099;" parent="1" vertex="1">
          <mxGeometry x="230" y="440" width="120" height="60" as="geometry" />
        </mxCell>
        <mxCell id="5rbwrfT3B-s63WrXZCqr-74" value="" style="rounded=1;whiteSpace=wrap;html=1;fontColor=#FFFFFF;fillColor=#FFFFCC;" parent="1" vertex="1">
          <mxGeometry x="359.5" y="285" width="40" height="120" as="geometry" />
        </mxCell>
        <mxCell id="5rbwrfT3B-s63WrXZCqr-75" value="" style="rounded=1;whiteSpace=wrap;html=1;fontColor=#FFFFFF;fillColor=#FFFFCC;" parent="1" vertex="1">
          <mxGeometry x="315" y="285" width="40" height="120" as="geometry" />
        </mxCell>
        <mxCell id="5rbwrfT3B-s63WrXZCqr-76" value="" style="rounded=1;whiteSpace=wrap;html=1;fontColor=#FFFFFF;fillColor=#FFFFCC;" parent="1" vertex="1">
          <mxGeometry x="270.5" y="285" width="40" height="120" as="geometry" />
        </mxCell>
        <mxCell id="5rbwrfT3B-s63WrXZCqr-77" value="" style="rounded=1;whiteSpace=wrap;html=1;fontColor=#FFFFFF;fillColor=#FFFFCC;" parent="1" vertex="1">
          <mxGeometry x="225.5" y="285" width="40" height="120" as="geometry" />
        </mxCell>
        <mxCell id="5rbwrfT3B-s63WrXZCqr-78" value="" style="rounded=1;whiteSpace=wrap;html=1;fontColor=#FFFFFF;fillColor=#FFFFCC;" parent="1" vertex="1">
          <mxGeometry x="180.5" y="285" width="40" height="120" as="geometry" />
        </mxCell>
        <mxCell id="5rbwrfT3B-s63WrXZCqr-79" value="pad" style="rounded=1;whiteSpace=wrap;html=1;fillColor=#990000;fontColor=#FFFFFF;" parent="1" vertex="1">
          <mxGeometry x="364.5" y="295" width="30" height="30" as="geometry" />
        </mxCell>
        <mxCell id="5rbwrfT3B-s63WrXZCqr-80" value="pad" style="rounded=1;whiteSpace=wrap;html=1;fillColor=light-dark(#990000, #959595);fontColor=#FFFFFF;" parent="1" vertex="1">
          <mxGeometry x="364.5" y="330" width="30" height="30" as="geometry" />
        </mxCell>
        <mxCell id="5rbwrfT3B-s63WrXZCqr-81" value="1" style="rounded=1;whiteSpace=wrap;html=1;fillColor=#990000;fontColor=#FFFFFF;" parent="1" vertex="1">
          <mxGeometry x="364.5" y="365" width="30" height="30" as="geometry" />
        </mxCell>
        <mxCell id="5rbwrfT3B-s63WrXZCqr-82" value="pad" style="rounded=1;whiteSpace=wrap;html=1;fillColor=#CCCCCC;fontColor=#FFFFFF;" parent="1" vertex="1">
          <mxGeometry x="185.5" y="295" width="30" height="30" as="geometry" />
        </mxCell>
        <mxCell id="5rbwrfT3B-s63WrXZCqr-83" value="pad" style="rounded=1;whiteSpace=wrap;html=1;fillColor=light-dark(#cccccc, #959595);fontColor=#FFFFFF;" parent="1" vertex="1">
          <mxGeometry x="185.5" y="330" width="30" height="30" as="geometry" />
        </mxCell>
        <mxCell id="5rbwrfT3B-s63WrXZCqr-84" value="+" style="rounded=1;whiteSpace=wrap;html=1;fillColor=#CCCCCC;fontColor=#FFFFFF;" parent="1" vertex="1">
          <mxGeometry x="185.5" y="365" width="30" height="30" as="geometry" />
        </mxCell>
        <mxCell id="5rbwrfT3B-s63WrXZCqr-85" value="9" style="rounded=1;whiteSpace=wrap;html=1;fillColor=#CCCCCC;fontColor=#FFFFFF;" parent="1" vertex="1">
          <mxGeometry x="230.5" y="295" width="30" height="30" as="geometry" />
        </mxCell>
        <mxCell id="5rbwrfT3B-s63WrXZCqr-86" value="9" style="rounded=1;whiteSpace=wrap;html=1;fillColor=#CCCCCC;fontColor=#FFFFFF;" parent="1" vertex="1">
          <mxGeometry x="230.5" y="330" width="30" height="30" as="geometry" />
        </mxCell>
        <mxCell id="5rbwrfT3B-s63WrXZCqr-87" value="8" style="rounded=1;whiteSpace=wrap;html=1;fillColor=#CCCCCC;fontColor=#FFFFFF;" parent="1" vertex="1">
          <mxGeometry x="230.5" y="365" width="30" height="30" as="geometry" />
        </mxCell>
        <mxCell id="5rbwrfT3B-s63WrXZCqr-88" value="pad" style="rounded=1;whiteSpace=wrap;html=1;fillColor=#CCCCCC;fontColor=#FFFFFF;" parent="1" vertex="1">
          <mxGeometry x="275.5" y="295" width="30" height="30" as="geometry" />
        </mxCell>
        <mxCell id="5rbwrfT3B-s63WrXZCqr-89" value="pad" style="rounded=1;whiteSpace=wrap;html=1;fillColor=#CCCCCC;fontColor=#FFFFFF;" parent="1" vertex="1">
          <mxGeometry x="275.5" y="330" width="30" height="30" as="geometry" />
        </mxCell>
        <mxCell id="5rbwrfT3B-s63WrXZCqr-90" value="=" style="rounded=1;whiteSpace=wrap;html=1;fillColor=#CCCCCC;fontColor=#FFFFFF;" parent="1" vertex="1">
          <mxGeometry x="275.5" y="365" width="30" height="30" as="geometry" />
        </mxCell>
        <mxCell id="5rbwrfT3B-s63WrXZCqr-91" value="1" style="rounded=1;whiteSpace=wrap;html=1;fillColor=#990000;fontColor=#FFFFFF;" parent="1" vertex="1">
          <mxGeometry x="320.5" y="295" width="30" height="30" as="geometry" />
        </mxCell>
        <mxCell id="5rbwrfT3B-s63WrXZCqr-92" value="0" style="rounded=1;whiteSpace=wrap;html=1;fillColor=#990000;fontColor=#FFFFFF;" parent="1" vertex="1">
          <mxGeometry x="320.5" y="330" width="30" height="30" as="geometry" />
        </mxCell>
        <mxCell id="5rbwrfT3B-s63WrXZCqr-93" value="0" style="rounded=1;whiteSpace=wrap;html=1;fillColor=#990000;fontColor=#FFFFFF;" parent="1" vertex="1">
          <mxGeometry x="320.5" y="365" width="30" height="30" as="geometry" />
        </mxCell>
        <mxCell id="5rbwrfT3B-s63WrXZCqr-100" value="" style="rounded=1;whiteSpace=wrap;html=1;fontColor=#FFFFFF;fillColor=#4C0099;" parent="1" vertex="1">
          <mxGeometry x="700" y="789" width="120" height="60" as="geometry" />
        </mxCell>
        <mxCell id="5rbwrfT3B-s63WrXZCqr-101" style="edgeStyle=orthogonalEdgeStyle;rounded=0;orthogonalLoop=1;jettySize=auto;html=1;exitX=0;exitY=0.5;exitDx=0;exitDy=0;entryX=1;entryY=0.5;entryDx=0;entryDy=0;" parent="1" source="5rbwrfT3B-s63WrXZCqr-102" target="5rbwrfT3B-s63WrXZCqr-144" edge="1">
          <mxGeometry relative="1" as="geometry" />
        </mxCell>
        <mxCell id="5rbwrfT3B-s63WrXZCqr-102" value="" style="rounded=1;whiteSpace=wrap;html=1;fontColor=#FFFFFF;fillColor=#FFFFCC;" parent="1" vertex="1">
          <mxGeometry x="981" y="970" width="120" height="40" as="geometry" />
        </mxCell>
        <mxCell id="5rbwrfT3B-s63WrXZCqr-103" style="edgeStyle=orthogonalEdgeStyle;rounded=0;orthogonalLoop=1;jettySize=auto;html=1;exitX=0;exitY=0.5;exitDx=0;exitDy=0;entryX=1;entryY=0.5;entryDx=0;entryDy=0;" parent="1" source="5rbwrfT3B-s63WrXZCqr-104" target="5rbwrfT3B-s63WrXZCqr-144" edge="1">
          <mxGeometry relative="1" as="geometry" />
        </mxCell>
        <mxCell id="5rbwrfT3B-s63WrXZCqr-104" value="" style="rounded=1;whiteSpace=wrap;html=1;fontColor=#FFFFFF;fillColor=#FFFFCC;" parent="1" vertex="1">
          <mxGeometry x="981" y="925" width="120" height="40" as="geometry" />
        </mxCell>
        <mxCell id="5rbwrfT3B-s63WrXZCqr-105" style="edgeStyle=orthogonalEdgeStyle;rounded=0;orthogonalLoop=1;jettySize=auto;html=1;exitX=0;exitY=0.5;exitDx=0;exitDy=0;entryX=1;entryY=0.5;entryDx=0;entryDy=0;" parent="1" source="5rbwrfT3B-s63WrXZCqr-106" target="5rbwrfT3B-s63WrXZCqr-144" edge="1">
          <mxGeometry relative="1" as="geometry" />
        </mxCell>
        <mxCell id="5rbwrfT3B-s63WrXZCqr-106" value="" style="rounded=1;whiteSpace=wrap;html=1;fontColor=#FFFFFF;fillColor=#FFFFCC;" parent="1" vertex="1">
          <mxGeometry x="981" y="880" width="120" height="40" as="geometry" />
        </mxCell>
        <mxCell id="5rbwrfT3B-s63WrXZCqr-107" style="edgeStyle=orthogonalEdgeStyle;rounded=0;orthogonalLoop=1;jettySize=auto;html=1;exitX=0;exitY=0.5;exitDx=0;exitDy=0;entryX=1;entryY=0.5;entryDx=0;entryDy=0;" parent="1" source="5rbwrfT3B-s63WrXZCqr-108" target="5rbwrfT3B-s63WrXZCqr-144" edge="1">
          <mxGeometry relative="1" as="geometry" />
        </mxCell>
        <mxCell id="5rbwrfT3B-s63WrXZCqr-108" value="" style="rounded=1;whiteSpace=wrap;html=1;fontColor=#FFFFFF;fillColor=#FFFFCC;" parent="1" vertex="1">
          <mxGeometry x="981" y="835" width="120" height="40" as="geometry" />
        </mxCell>
        <mxCell id="5rbwrfT3B-s63WrXZCqr-109" style="edgeStyle=orthogonalEdgeStyle;rounded=0;orthogonalLoop=1;jettySize=auto;html=1;exitX=0;exitY=0.5;exitDx=0;exitDy=0;entryX=1;entryY=0.5;entryDx=0;entryDy=0;" parent="1" source="5rbwrfT3B-s63WrXZCqr-110" target="5rbwrfT3B-s63WrXZCqr-144" edge="1">
          <mxGeometry relative="1" as="geometry" />
        </mxCell>
        <mxCell id="5rbwrfT3B-s63WrXZCqr-110" value="" style="rounded=1;whiteSpace=wrap;html=1;fontColor=#FFFFFF;fillColor=#FFFFCC;" parent="1" vertex="1">
          <mxGeometry x="981" y="790" width="120" height="40" as="geometry" />
        </mxCell>
        <mxCell id="5rbwrfT3B-s63WrXZCqr-111" value="pad" style="rounded=1;whiteSpace=wrap;html=1;fillColor=#666666;fontColor=#FFFFFF;" parent="1" vertex="1">
          <mxGeometry x="990" y="795" width="30" height="30" as="geometry" />
        </mxCell>
        <mxCell id="5rbwrfT3B-s63WrXZCqr-112" value="pad" style="rounded=1;whiteSpace=wrap;html=1;fillColor=#666666;fontColor=#FFFFFF;" parent="1" vertex="1">
          <mxGeometry x="1026" y="795" width="30" height="30" as="geometry" />
        </mxCell>
        <mxCell id="5rbwrfT3B-s63WrXZCqr-113" value="3" style="rounded=1;whiteSpace=wrap;html=1;fillColor=#4D9900;fontColor=#FFFFFF;" parent="1" vertex="1">
          <mxGeometry x="1062" y="795" width="30" height="30" as="geometry" />
        </mxCell>
        <mxCell id="5rbwrfT3B-s63WrXZCqr-114" value="pad" style="rounded=1;whiteSpace=wrap;html=1;fillColor=#666666;fontColor=#FFFFFF;" parent="1" vertex="1">
          <mxGeometry x="990" y="840" width="30" height="30" as="geometry" />
        </mxCell>
        <mxCell id="5rbwrfT3B-s63WrXZCqr-115" value="pad" style="rounded=1;whiteSpace=wrap;html=1;fillColor=#666666;fontColor=#FFFFFF;" parent="1" vertex="1">
          <mxGeometry x="1026" y="840" width="30" height="30" as="geometry" />
        </mxCell>
        <mxCell id="5rbwrfT3B-s63WrXZCqr-116" value="+" style="rounded=1;whiteSpace=wrap;html=1;fillColor=#004C99;fontColor=#FFFFFF;" parent="1" vertex="1">
          <mxGeometry x="1062" y="840" width="30" height="30" as="geometry" />
        </mxCell>
        <mxCell id="5rbwrfT3B-s63WrXZCqr-117" value="9" style="rounded=1;whiteSpace=wrap;html=1;fillColor=#4D9900;fontColor=#FFFFFF;" parent="1" vertex="1">
          <mxGeometry x="990" y="885" width="30" height="30" as="geometry" />
        </mxCell>
        <mxCell id="5rbwrfT3B-s63WrXZCqr-118" value="9" style="rounded=1;whiteSpace=wrap;html=1;fillColor=#4D9900;fontColor=#FFFFFF;" parent="1" vertex="1">
          <mxGeometry x="1026" y="885" width="30" height="30" as="geometry" />
        </mxCell>
        <mxCell id="5rbwrfT3B-s63WrXZCqr-119" value="8" style="rounded=1;whiteSpace=wrap;html=1;fillColor=#4D9900;fontColor=#FFFFFF;" parent="1" vertex="1">
          <mxGeometry x="1062" y="885" width="30" height="30" as="geometry" />
        </mxCell>
        <mxCell id="5rbwrfT3B-s63WrXZCqr-120" value="pad" style="rounded=1;whiteSpace=wrap;html=1;fillColor=#666666;fontColor=#FFFFFF;" parent="1" vertex="1">
          <mxGeometry x="990" y="930" width="30" height="30" as="geometry" />
        </mxCell>
        <mxCell id="5rbwrfT3B-s63WrXZCqr-121" value="pad" style="rounded=1;whiteSpace=wrap;html=1;fillColor=#666666;fontColor=#FFFFFF;" parent="1" vertex="1">
          <mxGeometry x="1026" y="930" width="30" height="30" as="geometry" />
        </mxCell>
        <mxCell id="5rbwrfT3B-s63WrXZCqr-122" value="=" style="rounded=1;whiteSpace=wrap;html=1;fillColor=#004C99;fontColor=#FFFFFF;" parent="1" vertex="1">
          <mxGeometry x="1062" y="930" width="30" height="30" as="geometry" />
        </mxCell>
        <mxCell id="5rbwrfT3B-s63WrXZCqr-123" value="1" style="rounded=1;whiteSpace=wrap;html=1;fillColor=#4D9900;fontColor=#FFFFFF;" parent="1" vertex="1">
          <mxGeometry x="990" y="975" width="30" height="30" as="geometry" />
        </mxCell>
        <mxCell id="5rbwrfT3B-s63WrXZCqr-124" value="0" style="rounded=1;whiteSpace=wrap;html=1;fillColor=#4D9900;fontColor=#FFFFFF;" parent="1" vertex="1">
          <mxGeometry x="1026" y="975" width="30" height="30" as="geometry" />
        </mxCell>
        <mxCell id="5rbwrfT3B-s63WrXZCqr-125" value="0" style="rounded=1;whiteSpace=wrap;html=1;fillColor=#4D9900;fontColor=#FFFFFF;" parent="1" vertex="1">
          <mxGeometry x="1062" y="975" width="30" height="30" as="geometry" />
        </mxCell>
        <mxCell id="5rbwrfT3B-s63WrXZCqr-126" style="edgeStyle=orthogonalEdgeStyle;rounded=0;orthogonalLoop=1;jettySize=auto;html=1;exitX=0.5;exitY=0;exitDx=0;exitDy=0;entryX=0.5;entryY=1;entryDx=0;entryDy=0;fontColor=#FFFFFF;" parent="1" source="5rbwrfT3B-s63WrXZCqr-127" target="5rbwrfT3B-s63WrXZCqr-142" edge="1">
          <mxGeometry relative="1" as="geometry" />
        </mxCell>
        <mxCell id="5rbwrfT3B-s63WrXZCqr-127" value="3" style="rounded=1;whiteSpace=wrap;html=1;fillColor=#4D9900;fontColor=#FFFFFF;" parent="1" vertex="1">
          <mxGeometry x="680" y="975" width="30" height="30" as="geometry" />
        </mxCell>
        <mxCell id="5rbwrfT3B-s63WrXZCqr-128" style="edgeStyle=orthogonalEdgeStyle;rounded=0;orthogonalLoop=1;jettySize=auto;html=1;exitX=0.5;exitY=0;exitDx=0;exitDy=0;entryX=0.5;entryY=1;entryDx=0;entryDy=0;fontColor=#FFFFFF;" parent="1" source="5rbwrfT3B-s63WrXZCqr-129" target="5rbwrfT3B-s63WrXZCqr-142" edge="1">
          <mxGeometry relative="1" as="geometry" />
        </mxCell>
        <mxCell id="5rbwrfT3B-s63WrXZCqr-129" value="+" style="rounded=1;whiteSpace=wrap;html=1;fillColor=#004C99;fontColor=#FFFFFF;" parent="1" vertex="1">
          <mxGeometry x="715" y="975" width="30" height="30" as="geometry" />
        </mxCell>
        <mxCell id="5rbwrfT3B-s63WrXZCqr-130" style="edgeStyle=orthogonalEdgeStyle;rounded=0;orthogonalLoop=1;jettySize=auto;html=1;exitX=0.5;exitY=0;exitDx=0;exitDy=0;entryX=0.5;entryY=1;entryDx=0;entryDy=0;fontColor=#FFFFFF;" parent="1" source="5rbwrfT3B-s63WrXZCqr-131" target="5rbwrfT3B-s63WrXZCqr-142" edge="1">
          <mxGeometry relative="1" as="geometry" />
        </mxCell>
        <mxCell id="5rbwrfT3B-s63WrXZCqr-131" value="998" style="rounded=1;whiteSpace=wrap;html=1;fillColor=#4D9900;fontColor=#FFFFFF;" parent="1" vertex="1">
          <mxGeometry x="750" y="975" width="30" height="30" as="geometry" />
        </mxCell>
        <mxCell id="5rbwrfT3B-s63WrXZCqr-132" style="edgeStyle=orthogonalEdgeStyle;rounded=0;orthogonalLoop=1;jettySize=auto;html=1;exitX=0.5;exitY=0;exitDx=0;exitDy=0;entryX=0.5;entryY=1;entryDx=0;entryDy=0;fontColor=#FFFFFF;" parent="1" source="5rbwrfT3B-s63WrXZCqr-133" target="5rbwrfT3B-s63WrXZCqr-142" edge="1">
          <mxGeometry relative="1" as="geometry" />
        </mxCell>
        <mxCell id="5rbwrfT3B-s63WrXZCqr-133" value="=" style="rounded=1;whiteSpace=wrap;html=1;fillColor=#004C99;fontColor=#FFFFFF;" parent="1" vertex="1">
          <mxGeometry x="785" y="975" width="30" height="30" as="geometry" />
        </mxCell>
        <mxCell id="5rbwrfT3B-s63WrXZCqr-134" style="edgeStyle=orthogonalEdgeStyle;rounded=0;orthogonalLoop=1;jettySize=auto;html=1;exitX=0.5;exitY=0;exitDx=0;exitDy=0;entryX=0.5;entryY=1;entryDx=0;entryDy=0;fontColor=#FFFFFF;" parent="1" source="5rbwrfT3B-s63WrXZCqr-135" target="5rbwrfT3B-s63WrXZCqr-142" edge="1">
          <mxGeometry relative="1" as="geometry" />
        </mxCell>
        <mxCell id="5rbwrfT3B-s63WrXZCqr-135" value="100" style="rounded=1;whiteSpace=wrap;html=1;fillColor=#4D9900;fontColor=#FFFFFF;" parent="1" vertex="1">
          <mxGeometry x="820" y="975" width="30" height="30" as="geometry" />
        </mxCell>
        <mxCell id="5rbwrfT3B-s63WrXZCqr-179" style="edgeStyle=orthogonalEdgeStyle;rounded=0;orthogonalLoop=1;jettySize=auto;html=1;exitX=0.5;exitY=0;exitDx=0;exitDy=0;entryX=0.5;entryY=1;entryDx=0;entryDy=0;" parent="1" source="5rbwrfT3B-s63WrXZCqr-136" target="5rbwrfT3B-s63WrXZCqr-177" edge="1">
          <mxGeometry relative="1" as="geometry" />
        </mxCell>
        <mxCell id="5rbwrfT3B-s63WrXZCqr-208" style="edgeStyle=orthogonalEdgeStyle;rounded=0;orthogonalLoop=1;jettySize=auto;html=1;exitX=0.5;exitY=0;exitDx=0;exitDy=0;entryX=0.5;entryY=1;entryDx=0;entryDy=0;" parent="1" source="5rbwrfT3B-s63WrXZCqr-136" target="5rbwrfT3B-s63WrXZCqr-207" edge="1">
          <mxGeometry relative="1" as="geometry" />
        </mxCell>
        <mxCell id="5rbwrfT3B-s63WrXZCqr-136" value="L1" style="rounded=1;whiteSpace=wrap;html=1;fillColor=#CC6600;fontColor=#FFFFFF;" parent="1" vertex="1">
          <mxGeometry x="680" y="710" width="30" height="30" as="geometry" />
        </mxCell>
        <mxCell id="5rbwrfT3B-s63WrXZCqr-181" style="edgeStyle=orthogonalEdgeStyle;rounded=0;orthogonalLoop=1;jettySize=auto;html=1;exitX=0.5;exitY=0;exitDx=0;exitDy=0;entryX=0.5;entryY=1;entryDx=0;entryDy=0;" parent="1" source="5rbwrfT3B-s63WrXZCqr-137" target="5rbwrfT3B-s63WrXZCqr-177" edge="1">
          <mxGeometry relative="1" as="geometry" />
        </mxCell>
        <mxCell id="5rbwrfT3B-s63WrXZCqr-137" value="L2" style="rounded=1;whiteSpace=wrap;html=1;fillColor=#CC6600;fontColor=#FFFFFF;" parent="1" vertex="1">
          <mxGeometry x="715" y="710" width="30" height="30" as="geometry" />
        </mxCell>
        <mxCell id="5rbwrfT3B-s63WrXZCqr-182" style="edgeStyle=orthogonalEdgeStyle;rounded=0;orthogonalLoop=1;jettySize=auto;html=1;exitX=0.5;exitY=0;exitDx=0;exitDy=0;entryX=0.5;entryY=1;entryDx=0;entryDy=0;" parent="1" source="5rbwrfT3B-s63WrXZCqr-138" target="5rbwrfT3B-s63WrXZCqr-177" edge="1">
          <mxGeometry relative="1" as="geometry" />
        </mxCell>
        <mxCell id="5rbwrfT3B-s63WrXZCqr-138" value="L3" style="rounded=1;whiteSpace=wrap;html=1;fillColor=#CC6600;fontColor=#FFFFFF;" parent="1" vertex="1">
          <mxGeometry x="750" y="710" width="30" height="30" as="geometry" />
        </mxCell>
        <mxCell id="5rbwrfT3B-s63WrXZCqr-183" style="edgeStyle=orthogonalEdgeStyle;rounded=0;orthogonalLoop=1;jettySize=auto;html=1;exitX=0.5;exitY=0;exitDx=0;exitDy=0;entryX=0.5;entryY=1;entryDx=0;entryDy=0;" parent="1" source="5rbwrfT3B-s63WrXZCqr-139" target="5rbwrfT3B-s63WrXZCqr-177" edge="1">
          <mxGeometry relative="1" as="geometry" />
        </mxCell>
        <mxCell id="5rbwrfT3B-s63WrXZCqr-139" value="L4" style="rounded=1;whiteSpace=wrap;html=1;fillColor=#CC6600;fontColor=#FFFFFF;" parent="1" vertex="1">
          <mxGeometry x="785" y="710" width="30" height="30" as="geometry" />
        </mxCell>
        <mxCell id="5rbwrfT3B-s63WrXZCqr-184" style="edgeStyle=orthogonalEdgeStyle;rounded=0;orthogonalLoop=1;jettySize=auto;html=1;exitX=0.5;exitY=0;exitDx=0;exitDy=0;entryX=0.5;entryY=1;entryDx=0;entryDy=0;" parent="1" source="5rbwrfT3B-s63WrXZCqr-140" target="5rbwrfT3B-s63WrXZCqr-177" edge="1">
          <mxGeometry relative="1" as="geometry" />
        </mxCell>
        <mxCell id="5rbwrfT3B-s63WrXZCqr-140" value="L5" style="rounded=1;whiteSpace=wrap;html=1;fillColor=#CC6600;fontColor=#FFFFFF;" parent="1" vertex="1">
          <mxGeometry x="820" y="710" width="30" height="30" as="geometry" />
        </mxCell>
        <mxCell id="5rbwrfT3B-s63WrXZCqr-141" style="edgeStyle=orthogonalEdgeStyle;rounded=0;orthogonalLoop=1;jettySize=auto;html=1;exitX=0.5;exitY=0;exitDx=0;exitDy=0;entryX=0.5;entryY=1;entryDx=0;entryDy=0;" parent="1" source="5rbwrfT3B-s63WrXZCqr-142" target="5rbwrfT3B-s63WrXZCqr-150" edge="1">
          <mxGeometry relative="1" as="geometry" />
        </mxCell>
        <mxCell id="5rbwrfT3B-s63WrXZCqr-142" value="Cross-Attention" style="rounded=1;whiteSpace=wrap;html=1;fontColor=#FFFFFF;fillColor=#4C0099;" parent="1" vertex="1">
          <mxGeometry x="705" y="870" width="120" height="60" as="geometry" />
        </mxCell>
        <mxCell id="5rbwrfT3B-s63WrXZCqr-143" style="edgeStyle=orthogonalEdgeStyle;rounded=0;orthogonalLoop=1;jettySize=auto;html=1;exitX=0;exitY=0.5;exitDx=0;exitDy=0;entryX=1;entryY=0.5;entryDx=0;entryDy=0;" parent="1" source="5rbwrfT3B-s63WrXZCqr-144" target="5rbwrfT3B-s63WrXZCqr-142" edge="1">
          <mxGeometry relative="1" as="geometry" />
        </mxCell>
        <mxCell id="5rbwrfT3B-s63WrXZCqr-144" value="Self-Attention" style="rounded=1;whiteSpace=wrap;html=1;fontColor=#FFFFFF;fillColor=#4C0099;" parent="1" vertex="1">
          <mxGeometry x="850" y="870" width="89" height="60" as="geometry" />
        </mxCell>
        <mxCell id="5rbwrfT3B-s63WrXZCqr-145" style="edgeStyle=orthogonalEdgeStyle;rounded=0;orthogonalLoop=1;jettySize=auto;html=1;exitX=0.5;exitY=0;exitDx=0;exitDy=0;entryX=0.5;entryY=1;entryDx=0;entryDy=0;" parent="1" source="5rbwrfT3B-s63WrXZCqr-150" target="5rbwrfT3B-s63WrXZCqr-138" edge="1">
          <mxGeometry relative="1" as="geometry" />
        </mxCell>
        <mxCell id="5rbwrfT3B-s63WrXZCqr-146" style="edgeStyle=orthogonalEdgeStyle;rounded=0;orthogonalLoop=1;jettySize=auto;html=1;exitX=0.5;exitY=0;exitDx=0;exitDy=0;entryX=0.5;entryY=1;entryDx=0;entryDy=0;" parent="1" source="5rbwrfT3B-s63WrXZCqr-150" target="5rbwrfT3B-s63WrXZCqr-139" edge="1">
          <mxGeometry relative="1" as="geometry" />
        </mxCell>
        <mxCell id="5rbwrfT3B-s63WrXZCqr-147" style="edgeStyle=orthogonalEdgeStyle;rounded=0;orthogonalLoop=1;jettySize=auto;html=1;exitX=0.5;exitY=0;exitDx=0;exitDy=0;entryX=0.5;entryY=1;entryDx=0;entryDy=0;" parent="1" source="5rbwrfT3B-s63WrXZCqr-150" target="5rbwrfT3B-s63WrXZCqr-140" edge="1">
          <mxGeometry relative="1" as="geometry" />
        </mxCell>
        <mxCell id="5rbwrfT3B-s63WrXZCqr-148" style="edgeStyle=orthogonalEdgeStyle;rounded=0;orthogonalLoop=1;jettySize=auto;html=1;exitX=0.5;exitY=0;exitDx=0;exitDy=0;entryX=0.5;entryY=1;entryDx=0;entryDy=0;" parent="1" source="5rbwrfT3B-s63WrXZCqr-150" target="5rbwrfT3B-s63WrXZCqr-137" edge="1">
          <mxGeometry relative="1" as="geometry" />
        </mxCell>
        <mxCell id="5rbwrfT3B-s63WrXZCqr-149" style="edgeStyle=orthogonalEdgeStyle;rounded=0;orthogonalLoop=1;jettySize=auto;html=1;exitX=0.5;exitY=0;exitDx=0;exitDy=0;entryX=0.5;entryY=1;entryDx=0;entryDy=0;" parent="1" source="5rbwrfT3B-s63WrXZCqr-150" target="5rbwrfT3B-s63WrXZCqr-136" edge="1">
          <mxGeometry relative="1" as="geometry" />
        </mxCell>
        <mxCell id="5rbwrfT3B-s63WrXZCqr-150" value="" style="rounded=1;whiteSpace=wrap;html=1;fontColor=#FFFFFF;fillColor=#4C0099;" parent="1" vertex="1">
          <mxGeometry x="705" y="785" width="120" height="60" as="geometry" />
        </mxCell>
        <mxCell id="5rbwrfT3B-s63WrXZCqr-151" value="n Transformer Blocks" style="rounded=1;whiteSpace=wrap;html=1;fontColor=#FFFFFF;fillColor=#4C0099;" parent="1" vertex="1">
          <mxGeometry x="710" y="780" width="120" height="60" as="geometry" />
        </mxCell>
        <mxCell id="5rbwrfT3B-s63WrXZCqr-226" style="edgeStyle=orthogonalEdgeStyle;rounded=0;orthogonalLoop=1;jettySize=auto;html=1;exitX=0;exitY=0.5;exitDx=0;exitDy=0;entryX=1;entryY=0.5;entryDx=0;entryDy=0;" parent="1" source="5rbwrfT3B-s63WrXZCqr-153" target="5rbwrfT3B-s63WrXZCqr-177" edge="1">
          <mxGeometry relative="1" as="geometry" />
        </mxCell>
        <mxCell id="5rbwrfT3B-s63WrXZCqr-153" value="" style="rounded=1;whiteSpace=wrap;html=1;fontColor=#FFFFFF;fillColor=#FFFFCC;" parent="1" vertex="1">
          <mxGeometry x="981" y="710" width="120" height="40" as="geometry" />
        </mxCell>
        <mxCell id="5rbwrfT3B-s63WrXZCqr-225" style="edgeStyle=orthogonalEdgeStyle;rounded=0;orthogonalLoop=1;jettySize=auto;html=1;exitX=0;exitY=0.5;exitDx=0;exitDy=0;entryX=1;entryY=0.5;entryDx=0;entryDy=0;" parent="1" source="5rbwrfT3B-s63WrXZCqr-155" target="5rbwrfT3B-s63WrXZCqr-177" edge="1">
          <mxGeometry relative="1" as="geometry" />
        </mxCell>
        <mxCell id="5rbwrfT3B-s63WrXZCqr-155" value="" style="rounded=1;whiteSpace=wrap;html=1;fontColor=#FFFFFF;fillColor=#FFFFCC;" parent="1" vertex="1">
          <mxGeometry x="981" y="665" width="120" height="40" as="geometry" />
        </mxCell>
        <mxCell id="5rbwrfT3B-s63WrXZCqr-222" style="edgeStyle=orthogonalEdgeStyle;rounded=0;orthogonalLoop=1;jettySize=auto;html=1;exitX=0;exitY=0.5;exitDx=0;exitDy=0;entryX=1;entryY=0.5;entryDx=0;entryDy=0;" parent="1" source="5rbwrfT3B-s63WrXZCqr-157" target="5rbwrfT3B-s63WrXZCqr-177" edge="1">
          <mxGeometry relative="1" as="geometry" />
        </mxCell>
        <mxCell id="5rbwrfT3B-s63WrXZCqr-157" value="" style="rounded=1;whiteSpace=wrap;html=1;fontColor=#FFFFFF;fillColor=#FFFFCC;" parent="1" vertex="1">
          <mxGeometry x="981" y="620" width="120" height="40" as="geometry" />
        </mxCell>
        <mxCell id="5rbwrfT3B-s63WrXZCqr-223" style="edgeStyle=orthogonalEdgeStyle;rounded=0;orthogonalLoop=1;jettySize=auto;html=1;exitX=0;exitY=0.5;exitDx=0;exitDy=0;entryX=1;entryY=0.5;entryDx=0;entryDy=0;" parent="1" source="5rbwrfT3B-s63WrXZCqr-159" target="5rbwrfT3B-s63WrXZCqr-177" edge="1">
          <mxGeometry relative="1" as="geometry" />
        </mxCell>
        <mxCell id="5rbwrfT3B-s63WrXZCqr-159" value="" style="rounded=1;whiteSpace=wrap;html=1;fontColor=#FFFFFF;fillColor=#FFFFCC;" parent="1" vertex="1">
          <mxGeometry x="981" y="575" width="119" height="40" as="geometry" />
        </mxCell>
        <mxCell id="5rbwrfT3B-s63WrXZCqr-224" style="edgeStyle=orthogonalEdgeStyle;rounded=0;orthogonalLoop=1;jettySize=auto;html=1;exitX=0;exitY=0.5;exitDx=0;exitDy=0;entryX=1;entryY=0.5;entryDx=0;entryDy=0;" parent="1" source="5rbwrfT3B-s63WrXZCqr-161" target="5rbwrfT3B-s63WrXZCqr-177" edge="1">
          <mxGeometry relative="1" as="geometry" />
        </mxCell>
        <mxCell id="5rbwrfT3B-s63WrXZCqr-161" value="" style="rounded=1;whiteSpace=wrap;html=1;fontColor=#FFFFFF;fillColor=#FFFFCC;" parent="1" vertex="1">
          <mxGeometry x="981" y="530" width="120" height="40" as="geometry" />
        </mxCell>
        <mxCell id="5rbwrfT3B-s63WrXZCqr-162" value="pad" style="rounded=1;whiteSpace=wrap;html=1;fillColor=#666666;fontColor=#FFFFFF;" parent="1" vertex="1">
          <mxGeometry x="990" y="535" width="30" height="30" as="geometry" />
        </mxCell>
        <mxCell id="5rbwrfT3B-s63WrXZCqr-163" value="pad" style="rounded=1;whiteSpace=wrap;html=1;fillColor=#666666;fontColor=#FFFFFF;" parent="1" vertex="1">
          <mxGeometry x="1026" y="535" width="30" height="30" as="geometry" />
        </mxCell>
        <mxCell id="5rbwrfT3B-s63WrXZCqr-164" value="pad" style="rounded=1;whiteSpace=wrap;html=1;fillColor=light-dark(#666666, #589916);fontColor=#FFFFFF;" parent="1" vertex="1">
          <mxGeometry x="1062" y="535" width="30" height="30" as="geometry" />
        </mxCell>
        <mxCell id="5rbwrfT3B-s63WrXZCqr-165" value="pad" style="rounded=1;whiteSpace=wrap;html=1;fillColor=#666666;fontColor=#FFFFFF;" parent="1" vertex="1">
          <mxGeometry x="990" y="580" width="30" height="30" as="geometry" />
        </mxCell>
        <mxCell id="5rbwrfT3B-s63WrXZCqr-166" value="pad" style="rounded=1;whiteSpace=wrap;html=1;fillColor=#666666;fontColor=#FFFFFF;" parent="1" vertex="1">
          <mxGeometry x="1026" y="580" width="30" height="30" as="geometry" />
        </mxCell>
        <mxCell id="5rbwrfT3B-s63WrXZCqr-167" value="pad" style="rounded=1;whiteSpace=wrap;html=1;fillColor=light-dark(#666666, #589916);fontColor=#FFFFFF;" parent="1" vertex="1">
          <mxGeometry x="1062" y="580" width="30" height="30" as="geometry" />
        </mxCell>
        <mxCell id="5rbwrfT3B-s63WrXZCqr-168" value="pad" style="rounded=1;whiteSpace=wrap;html=1;fillColor=light-dark(#666666, #589916);fontColor=#FFFFFF;" parent="1" vertex="1">
          <mxGeometry x="990" y="625" width="30" height="30" as="geometry" />
        </mxCell>
        <mxCell id="5rbwrfT3B-s63WrXZCqr-169" value="pad" style="rounded=1;whiteSpace=wrap;html=1;fillColor=light-dark(#666666, #589916);fontColor=#FFFFFF;" parent="1" vertex="1">
          <mxGeometry x="1026" y="625" width="30" height="30" as="geometry" />
        </mxCell>
        <mxCell id="5rbwrfT3B-s63WrXZCqr-170" value="pad" style="rounded=1;whiteSpace=wrap;html=1;fillColor=light-dark(#666666, #589916);fontColor=#FFFFFF;" parent="1" vertex="1">
          <mxGeometry x="1060" y="625" width="34" height="30" as="geometry" />
        </mxCell>
        <mxCell id="5rbwrfT3B-s63WrXZCqr-171" value="pad" style="rounded=1;whiteSpace=wrap;html=1;fillColor=#666666;fontColor=#FFFFFF;" parent="1" vertex="1">
          <mxGeometry x="990" y="670" width="30" height="30" as="geometry" />
        </mxCell>
        <mxCell id="5rbwrfT3B-s63WrXZCqr-172" value="pad" style="rounded=1;whiteSpace=wrap;html=1;fillColor=#666666;fontColor=#FFFFFF;" parent="1" vertex="1">
          <mxGeometry x="1026" y="670" width="30" height="30" as="geometry" />
        </mxCell>
        <mxCell id="5rbwrfT3B-s63WrXZCqr-173" value="pad" style="rounded=1;whiteSpace=wrap;html=1;fillColor=light-dark(#666666, #589916);fontColor=#FFFFFF;" parent="1" vertex="1">
          <mxGeometry x="1062" y="670" width="30" height="30" as="geometry" />
        </mxCell>
        <mxCell id="5rbwrfT3B-s63WrXZCqr-174" value="pad" style="rounded=1;whiteSpace=wrap;html=1;fillColor=light-dark(#666666, #589916);fontColor=#FFFFFF;" parent="1" vertex="1">
          <mxGeometry x="990" y="715" width="30" height="30" as="geometry" />
        </mxCell>
        <mxCell id="5rbwrfT3B-s63WrXZCqr-175" value="pad" style="rounded=1;whiteSpace=wrap;html=1;fillColor=light-dark(#666666, #589916);fontColor=#FFFFFF;" parent="1" vertex="1">
          <mxGeometry x="1026" y="715" width="30" height="30" as="geometry" />
        </mxCell>
        <mxCell id="5rbwrfT3B-s63WrXZCqr-176" value="pad" style="rounded=1;whiteSpace=wrap;html=1;fillColor=light-dark(#666666, #589916);fontColor=#FFFFFF;" parent="1" vertex="1">
          <mxGeometry x="1062" y="715" width="30" height="30" as="geometry" />
        </mxCell>
        <mxCell id="5rbwrfT3B-s63WrXZCqr-232" style="edgeStyle=orthogonalEdgeStyle;rounded=0;orthogonalLoop=1;jettySize=auto;html=1;exitX=0.5;exitY=0;exitDx=0;exitDy=0;entryX=0.5;entryY=1;entryDx=0;entryDy=0;" parent="1" source="5rbwrfT3B-s63WrXZCqr-177" target="5rbwrfT3B-s63WrXZCqr-227" edge="1">
          <mxGeometry relative="1" as="geometry" />
        </mxCell>
        <mxCell id="5rbwrfT3B-s63WrXZCqr-177" value="Cross-Attention" style="rounded=1;whiteSpace=wrap;html=1;fontColor=#FFFFFF;fillColor=#4C0099;" parent="1" vertex="1">
          <mxGeometry x="850" y="610" width="85" height="60" as="geometry" />
        </mxCell>
        <mxCell id="5rbwrfT3B-s63WrXZCqr-231" style="edgeStyle=orthogonalEdgeStyle;rounded=0;orthogonalLoop=1;jettySize=auto;html=1;exitX=0.5;exitY=0;exitDx=0;exitDy=0;entryX=0;entryY=0.5;entryDx=0;entryDy=0;" parent="1" source="5rbwrfT3B-s63WrXZCqr-207" target="5rbwrfT3B-s63WrXZCqr-228" edge="1">
          <mxGeometry relative="1" as="geometry" />
        </mxCell>
        <mxCell id="5rbwrfT3B-s63WrXZCqr-207" value="Self-Attention" style="rounded=1;whiteSpace=wrap;html=1;fontColor=#FFFFFF;fillColor=#4C0099;" parent="1" vertex="1">
          <mxGeometry x="720.5" y="610" width="89" height="60" as="geometry" />
        </mxCell>
        <mxCell id="5rbwrfT3B-s63WrXZCqr-233" style="edgeStyle=orthogonalEdgeStyle;rounded=0;orthogonalLoop=1;jettySize=auto;html=1;exitX=0.5;exitY=0;exitDx=0;exitDy=0;entryX=0.5;entryY=1;entryDx=0;entryDy=0;" parent="1" source="5rbwrfT3B-s63WrXZCqr-227" target="5rbwrfT3B-s63WrXZCqr-228" edge="1">
          <mxGeometry relative="1" as="geometry" />
        </mxCell>
        <mxCell id="5rbwrfT3B-s63WrXZCqr-227" value="Self-Attention" style="rounded=1;whiteSpace=wrap;html=1;fontColor=#FFFFFF;fillColor=#4C0099;" parent="1" vertex="1">
          <mxGeometry x="850" y="520" width="89" height="60" as="geometry" />
        </mxCell>
        <mxCell id="5rbwrfT3B-s63WrXZCqr-228" value="Cross-Attention" style="rounded=1;whiteSpace=wrap;html=1;fontColor=#FFFFFF;fillColor=#4C0099;" parent="1" vertex="1">
          <mxGeometry x="852" y="430" width="85" height="60" as="geometry" />
        </mxCell>
        <mxCell id="5rbwrfT3B-s63WrXZCqr-234" value="" style="rounded=1;whiteSpace=wrap;html=1;fontColor=#FFFFFF;fillColor=#FFFFCC;" parent="1" vertex="1">
          <mxGeometry x="956" y="285" width="40" height="120" as="geometry" />
        </mxCell>
        <mxCell id="5rbwrfT3B-s63WrXZCqr-235" value="" style="rounded=1;whiteSpace=wrap;html=1;fontColor=#FFFFFF;fillColor=#FFFFCC;" parent="1" vertex="1">
          <mxGeometry x="911.5" y="285" width="40" height="120" as="geometry" />
        </mxCell>
        <mxCell id="5rbwrfT3B-s63WrXZCqr-236" value="" style="rounded=1;whiteSpace=wrap;html=1;fontColor=#FFFFFF;fillColor=#FFFFCC;" parent="1" vertex="1">
          <mxGeometry x="867" y="285" width="40" height="120" as="geometry" />
        </mxCell>
        <mxCell id="5rbwrfT3B-s63WrXZCqr-237" value="" style="rounded=1;whiteSpace=wrap;html=1;fontColor=#FFFFFF;fillColor=#FFFFCC;" parent="1" vertex="1">
          <mxGeometry x="822" y="285" width="40" height="120" as="geometry" />
        </mxCell>
        <mxCell id="5rbwrfT3B-s63WrXZCqr-238" value="" style="rounded=1;whiteSpace=wrap;html=1;fontColor=#FFFFFF;fillColor=#FFFFCC;" parent="1" vertex="1">
          <mxGeometry x="777" y="285" width="40" height="120" as="geometry" />
        </mxCell>
        <mxCell id="5rbwrfT3B-s63WrXZCqr-239" value="pad" style="rounded=1;whiteSpace=wrap;html=1;fillColor=#990000;fontColor=#FFFFFF;" parent="1" vertex="1">
          <mxGeometry x="961" y="295" width="30" height="30" as="geometry" />
        </mxCell>
        <mxCell id="5rbwrfT3B-s63WrXZCqr-240" value="pad" style="rounded=1;whiteSpace=wrap;html=1;fillColor=light-dark(#990000, #959595);fontColor=#FFFFFF;" parent="1" vertex="1">
          <mxGeometry x="961" y="330" width="30" height="30" as="geometry" />
        </mxCell>
        <mxCell id="5rbwrfT3B-s63WrXZCqr-241" value="1" style="rounded=1;whiteSpace=wrap;html=1;fillColor=#990000;fontColor=#FFFFFF;" parent="1" vertex="1">
          <mxGeometry x="961" y="365" width="30" height="30" as="geometry" />
        </mxCell>
        <mxCell id="5rbwrfT3B-s63WrXZCqr-242" value="pad" style="rounded=1;whiteSpace=wrap;html=1;fillColor=#CCCCCC;fontColor=#FFFFFF;" parent="1" vertex="1">
          <mxGeometry x="782" y="295" width="30" height="30" as="geometry" />
        </mxCell>
        <mxCell id="5rbwrfT3B-s63WrXZCqr-243" value="pad" style="rounded=1;whiteSpace=wrap;html=1;fillColor=light-dark(#cccccc, #959595);fontColor=#FFFFFF;" parent="1" vertex="1">
          <mxGeometry x="782" y="330" width="30" height="30" as="geometry" />
        </mxCell>
        <mxCell id="5rbwrfT3B-s63WrXZCqr-244" value="+" style="rounded=1;whiteSpace=wrap;html=1;fillColor=#CCCCCC;fontColor=#FFFFFF;" parent="1" vertex="1">
          <mxGeometry x="782" y="365" width="30" height="30" as="geometry" />
        </mxCell>
        <mxCell id="5rbwrfT3B-s63WrXZCqr-245" value="9" style="rounded=1;whiteSpace=wrap;html=1;fillColor=#CCCCCC;fontColor=#FFFFFF;" parent="1" vertex="1">
          <mxGeometry x="827" y="295" width="30" height="30" as="geometry" />
        </mxCell>
        <mxCell id="5rbwrfT3B-s63WrXZCqr-246" value="9" style="rounded=1;whiteSpace=wrap;html=1;fillColor=#CCCCCC;fontColor=#FFFFFF;" parent="1" vertex="1">
          <mxGeometry x="827" y="330" width="30" height="30" as="geometry" />
        </mxCell>
        <mxCell id="5rbwrfT3B-s63WrXZCqr-247" value="8" style="rounded=1;whiteSpace=wrap;html=1;fillColor=#CCCCCC;fontColor=#FFFFFF;" parent="1" vertex="1">
          <mxGeometry x="827" y="365" width="30" height="30" as="geometry" />
        </mxCell>
        <mxCell id="5rbwrfT3B-s63WrXZCqr-248" value="pad" style="rounded=1;whiteSpace=wrap;html=1;fillColor=#CCCCCC;fontColor=#FFFFFF;" parent="1" vertex="1">
          <mxGeometry x="872" y="295" width="30" height="30" as="geometry" />
        </mxCell>
        <mxCell id="5rbwrfT3B-s63WrXZCqr-249" value="pad" style="rounded=1;whiteSpace=wrap;html=1;fillColor=#CCCCCC;fontColor=#FFFFFF;" parent="1" vertex="1">
          <mxGeometry x="872" y="330" width="30" height="30" as="geometry" />
        </mxCell>
        <mxCell id="5rbwrfT3B-s63WrXZCqr-250" value="=" style="rounded=1;whiteSpace=wrap;html=1;fillColor=#CCCCCC;fontColor=#FFFFFF;" parent="1" vertex="1">
          <mxGeometry x="872" y="365" width="30" height="30" as="geometry" />
        </mxCell>
        <mxCell id="5rbwrfT3B-s63WrXZCqr-251" value="1" style="rounded=1;whiteSpace=wrap;html=1;fillColor=#990000;fontColor=#FFFFFF;" parent="1" vertex="1">
          <mxGeometry x="917" y="295" width="30" height="30" as="geometry" />
        </mxCell>
        <mxCell id="5rbwrfT3B-s63WrXZCqr-252" value="0" style="rounded=1;whiteSpace=wrap;html=1;fillColor=#990000;fontColor=#FFFFFF;" parent="1" vertex="1">
          <mxGeometry x="917" y="330" width="30" height="30" as="geometry" />
        </mxCell>
        <mxCell id="5rbwrfT3B-s63WrXZCqr-253" value="0" style="rounded=1;whiteSpace=wrap;html=1;fillColor=#990000;fontColor=#FFFFFF;" parent="1" vertex="1">
          <mxGeometry x="917" y="365" width="30" height="30" as="geometry" />
        </mxCell>
      </root>
    </mxGraphModel>
  </diagram>
</mxfile>
